<?xml version="1.0" encoding="utf-8"?>
<!-- Generator: Adobe Illustrator 17.0.0, SVG Export Plug-In . SVG Version: 6.00 Build 0)  -->
<!DOCTYPE svg PUBLIC "-//W3C//DTD SVG 1.1//EN" "http://www.w3.org/Graphics/SVG/1.1/DTD/svg11.dtd">
<svg version="1.1" id="Layer_1" xmlns="http://www.w3.org/2000/svg" xmlns:xlink="http://www.w3.org/1999/xlink" x="0px" y="0px"
	viewBox="0 0 728.6 149.228" enable-background="new 0 0 728.6 149.228" xml:space="preserve">
<polygon fill="#FBF9DF" points="703.614,28.916 678.751,56.775 678.751,28.916 660.76,28.916 660.76,99.255 678.751,99.255 
	678.751,69.645 705.362,99.255 728.6,99.255 728.6,99.254 695.868,62.398 726.226,28.916 "/>
<polygon fill="#FBF9DF" points="629.037,55.152 604.176,55.152 604.176,28.916 586.183,28.916 586.183,99.254 604.176,99.254 
	604.176,71.518 629.037,71.518 629.037,99.254 647.027,99.254 647.027,28.916 629.037,28.916 "/>
<g>
	<path fill="#FBF9DF" d="M106.819,67.021c-0.43,13.115-2.123,15.742-9.494,15.742v16.491h2.748c18.388,0,22.81-9.496,23.488-30.608
		l0.749-23.363h17.241v53.971h17.991V28.917h-51.473L106.819,67.021z"/>
	<path fill="#FBF9DF" d="M204.257,50.279h-12.993V28.915h-17.99v70.338h31.234c19.614,0,26.61-12.743,26.61-24.737
		C231.118,59.025,221.374,50.279,204.257,50.279 M202.883,83.762h-11.619V65.896h11.619c6.247,0,9.995,2.749,9.995,8.62
		C212.878,80.888,209.255,83.762,202.883,83.762"/>
	<path fill="#FBF9DF" d="M289.713,27.291V1.179h-17.99v26.112c-20.614,1.749-34.483,16.367-34.483,36.731
		c0,20.489,13.869,35.107,34.483,36.855v26.489h17.99v-26.489c20.614-1.624,34.482-16.366,34.482-36.855
		S310.327,28.915,289.713,27.291 M271.723,83.887c-9.995-1.375-16.242-8.871-16.242-19.865s6.247-18.489,16.242-19.864V83.887z
		 M289.713,83.887V44.158c9.995,1.375,16.241,8.87,16.241,19.864S299.708,82.512,289.713,83.887"/>
	<path fill="#FBF9DF" d="M391.66,77.641V54.029c0-17.241-10.993-28.112-29.483-28.112c-19.115,0-29.235,11.495-30.11,23.489h18.241
		c0.624-2.624,3.373-7.121,11.869-7.121c6.996,0,11.494,3.248,11.494,11.744h-17.866c-15.992,0-25.488,8.37-25.488,22.362
		c0,14.618,10.387,24.613,25.363,24.613c10.98,0,17.077-5.191,19.739-9.121c2.374,4.747,7.621,7.371,14.491,7.371h6.247V83.013
		C392.909,83.013,391.66,81.514,391.66,77.641 M373.671,73.018c0,8.121-5.747,12.744-13.244,12.744
		c-6.496,0-11.618-2.374-11.618-9.371c0-6.871,5.621-7.995,10.494-7.995h14.368V73.018z"/>
	<path fill="#FBF9DF" d="M468.746,38.909h-20.114V19.045h46.599V1.18h-65.465v98.073h38.98c21.612,0,33.981-10.744,33.981-30.484
		C502.727,50.156,490.358,38.909,468.746,38.909 M467.871,81.513h-19.239V56.026h19.239c9.995,0,15.616,4.623,15.616,12.743
		C483.487,77.14,477.866,81.513,467.871,81.513"/>
	<path fill="#FBF9DF" d="M571.566,77.641V54.029c0-17.241-10.994-28.112-29.483-28.112c-19.115,0-29.235,11.495-30.11,23.489h18.241
		c0.624-2.624,3.373-7.121,11.869-7.121c6.996,0,11.494,3.248,11.494,11.744h-17.866c-15.992,0-25.488,8.37-25.488,22.362
		c0,14.618,10.387,24.613,25.363,24.613c10.98,0,17.077-5.191,19.739-9.121c2.374,4.747,7.62,7.371,14.492,7.371h6.247V83.013
		C572.815,83.013,571.566,81.514,571.566,77.641 M553.577,73.018c0,8.121-5.747,12.744-13.243,12.744
		c-6.497,0-11.619-2.374-11.619-9.371c0-6.871,5.622-7.995,10.494-7.995h14.368V73.018z"/>
	<rect y="129.238" fill="#FBF9DF" width="96.2" height="19.99"/>
	<path fill="#FBF9DF" d="M65.586,14.641C62.843,6.461,59.682,0,48.849,0C38.017,0,34.652,6.435,31.765,14.641L1.999,99.253h19.74
		l6.871-20.114h37.98l6.371,20.114h20.99L65.586,14.641z M34.357,62.148L47.85,22.044h0.499l12.744,40.104H34.357z"/>
</g>
</svg>
