<?xml version="1.0" encoding="utf-8"?>
<!-- Generator: Adobe Illustrator 17.0.0, SVG Export Plug-In . SVG Version: 6.00 Build 0)  -->
<!DOCTYPE svg PUBLIC "-//W3C//DTD SVG 1.1//EN" "http://www.w3.org/Graphics/SVG/1.1/DTD/svg11.dtd">
<svg version="1.1" id="Layer_1" xmlns="http://www.w3.org/2000/svg" xmlns:xlink="http://www.w3.org/1999/xlink" x="0px" y="0px"
	viewBox="0 0 575.092 109.238" enable-background="new 0 0 575.092 109.238"
	xml:space="preserve">
<g>
	<path fill="#FBF9DF" d="M210.214,109.238c0-0.782,0-1.436,0-2.09c0-17.06-0.012-34.12,0.015-51.179
		c0.003-2.022,0.079-4.063,0.359-6.062c0.692-4.947,2.623-9.283,6.843-12.263c3.611-2.55,7.727-3.144,12.051-2.957
		c6.866,0.297,12.049,4.03,14.197,10.518c1.999,6.039,2.082,12.175,0.312,18.274c-1.877,6.468-7.078,10.366-13.898,10.546
		c-3.18,0.084-6.363,0.078-9.544,0.033c-1.085-0.015-1.595,0.223-1.572,1.439c0.064,3.4,0.043,6.802,0.01,10.202
		c-0.01,0.974,0.309,1.371,1.332,1.34c4.329-0.131,8.67-0.042,12.988-0.33c11.044-0.737,20.36-8.199,23.69-18.695
		c2.45-7.722,2.575-15.549,0.879-23.38c-3.017-13.93-12.992-22.617-26.665-22.706c-7.259-0.047-13.403,2.401-18.09,8.069
		c-0.814,0.984-1.676,1.034-2.897,0.657c0-2.343,0-4.677,0-7.113c-4.637,0-9.103,0-13.611,0c0,28.619,0,57.117,0,85.698
		C201.171,109.238,205.638,109.238,210.214,109.238z M66.194,41.692c4.818,0,9.414,0.023,14.008-0.045
		c0.352-0.005,0.842-0.591,1.017-1.011c1.176-2.819,3.275-4.594,6.092-5.618c3.337-1.213,6.802-1.331,10.225-0.776
		c6.61,1.071,9.692,4.732,9.797,11.484c0.09,5.759-0.274,11.541,0.124,17.274c0.275,3.951-1.202,6.476-4.174,8.708
		c-5.843,4.388-12.148,6.75-19.504,4.951c-4.466-1.092-7.215-4.573-7.165-8.837c0.054-4.655,2.537-7.774,7.282-8.78
		c1.962-0.416,4.018-0.464,6.036-0.523c2.832-0.083,5.667-0.021,8.557-0.021c0-3.379,0-6.525,0-10.125
		c-6.401,0.348-12.748,0.207-18.932,1.141c-9.865,1.489-15.642,7.673-16.833,16.876c-1.199,9.263,4.198,17.883,13.133,20.681
		c10.19,3.19,19.559,1.094,28.311-4.683c0.823-0.543,1.875-0.739,3.19-1.235c0,1.928,0.035,3.286-0.012,4.641
		c-0.032,0.924,0.326,1.261,1.252,1.243c2.248-0.045,4.498-0.014,6.748-0.014c1.846,0,3.693,0,5.532,0
		c0.072-0.443,0.136-0.656,0.136-0.868c-0.008-14.703,0.106-29.407-0.101-44.107c-0.078-5.546-2.246-10.458-6.593-14.174
		c-4.302-3.677-9.478-5.16-14.958-5.698c-7.767-0.762-15.359-0.188-22.318,3.791C71.047,29.395,67.22,34.391,66.194,41.692z
		 M326.457,67.443c-4.379,0-8.593-0.015-12.808,0.027c-0.345,0.003-0.836,0.312-1.007,0.619c-2.902,5.22-7.479,7.527-13.282,8.063
		c-7.742,0.716-14.558-3.306-17.336-10.539c-2.002-5.211-2.103-10.61-1.294-16.041c1.912-12.846,14.088-19.331,25.752-13.764
		c4.405,2.102,7.881,8.143,7.321,12.908c-8.185,0-16.391,0-24.65,0c0,3.305,0,6.453,0,9.64c12.792,0,25.48,0,38.461,0
		c-0.179-4.025-0.078-7.936-0.581-11.768c-1.041-7.931-4.54-14.588-11.163-19.361c-6.326-4.558-13.525-5.865-21.083-5.167
		c-8.599,0.794-15.886,4.354-21.312,11.273c-5.147,6.563-6.896,14.183-6.837,22.338c0.054,7.335,1.661,14.259,5.98,20.315
		c5.319,7.457,12.768,11.388,21.757,12.343c7.825,0.831,15.196-0.615,21.651-5.406C321.263,79.037,324.694,73.906,326.457,67.443z
		 M131.664,67.442c0.036,0.585,0.015,0.971,0.088,1.339c1.517,7.707,5.897,13.305,12.965,16.531
		c9.235,4.216,18.811,4.368,28.34,1.064c8.727-3.026,13.651-9.859,13.887-18.613c0.231-8.582-4.108-14.818-12.354-16.905
		c-4.482-1.135-9.17-1.442-13.753-2.19c-3.123-0.51-6.331-0.817-9.313-1.79c-3.913-1.277-5.292-4.95-3.397-8.451
		c0.666-1.23,1.841-2.375,3.06-3.078c3.839-2.213,8.049-2.385,12.281-1.458c3.96,0.868,7.131,2.762,8.16,7.111
		c0.077,0.328,0.92,0.665,1.412,0.673c3.565,0.056,7.13,0.035,10.696,0.02c0.356-0.001,0.712-0.122,1.137-0.201
		c-0.599-7.885-4.291-13.679-11.432-16.805c-9.003-3.941-18.254-3.802-27.371-0.282c-4.567,1.764-8.212,4.82-10.46,9.301
		c-3.484,6.944-3.091,18.324,7.163,23.189c4.277,2.03,8.86,2.718,13.51,3.185c3.864,0.388,7.742,0.751,11.565,1.407
		c2.748,0.471,4.868,1.977,5.319,5.051c0.525,3.588-0.642,6.421-3.495,8.022c-4.284,2.404-8.923,2.446-13.591,1.652
		c-4.758-0.809-8.279-3.292-10.039-7.967c-0.131-0.348-0.672-0.765-1.027-0.77C140.632,67.424,136.25,67.442,131.664,67.442z
		 M381.253,67.441c0.032,0.511,0.02,0.787,0.07,1.05c1.683,8.876,7.019,14.685,15.305,17.827c7.115,2.697,14.507,2.908,21.866,1.325
		c11.347-2.44,17.673-10.056,18.116-19.455c0.384-8.167-3.933-15.09-11.855-17.155c-4.682-1.22-9.588-1.567-14.382-2.373
		c-3.12-0.524-6.352-0.793-9.298-1.841c-4.948-1.76-5.682-7.603-1.412-10.703c4.622-3.356,9.837-3.337,15.084-1.744
		c3.21,0.975,5.573,2.943,6.446,6.402c0.102,0.402,0.916,0.878,1.409,0.888c3.565,0.075,7.133,0.045,10.7,0.03
		c0.36-0.001,0.72-0.119,1.169-0.199c-0.53-7.468-3.915-13.039-10.518-16.4c-6.972-3.548-14.425-3.837-21.982-2.53
		c-6.196,1.072-11.589,3.67-15.393,8.9c-5.012,6.892-4.292,17.14,1.622,22.602c3.516,3.247,7.909,4.669,12.518,5.325
		c4.932,0.703,9.914,1.046,14.854,1.703c2.794,0.372,5.585,1.026,6.831,4.07c1.466,3.581,0.097,7.67-3.3,9.506
		c-4.255,2.3-8.85,2.342-13.461,1.536c-4.682-0.818-8.175-3.262-9.94-7.864c-0.149-0.388-0.741-0.858-1.133-0.863
		C390.184,67.419,385.801,67.441,381.253,67.441z M521.107,109.367c4.495,0,8.652-0.05,12.807,0.03
		c1.279,0.025,1.947-0.362,2.493-1.551c12.667-27.581,25.376-55.144,38.072-82.711c0.216-0.469,0.382-0.961,0.612-1.548
		c-0.444-0.076-0.704-0.158-0.964-0.159c-3.95-0.01-7.903,0.063-11.85-0.047c-1.526-0.042-2.328,0.416-2.952,1.851
		c-2.644,6.078-5.513,12.058-8.115,18.153c-2.9,6.791-5.585,13.672-8.424,20.49c-0.169,0.405-0.878,0.824-1.321,0.809
		c-0.438-0.015-1.067-0.485-1.245-0.909c-0.548-1.307-0.807-2.737-1.379-4.031c-5.219-11.812-10.469-23.611-15.775-35.384
		c-0.21-0.465-1.07-0.89-1.636-0.901c-3.949-0.078-7.9-0.045-11.85-0.037c-0.575,0.001-1.15,0.057-1.915,0.097
		c1.625,3.502,3.138,6.776,4.661,10.043c7.125,15.281,14.266,30.555,21.342,45.858c0.312,0.674,0.309,1.722,0.015,2.408
		c-1.53,3.575-3.201,7.09-4.823,10.626C526.329,97.977,523.797,103.501,521.107,109.367z M376.722,21.964
		c-2.331,0-4.564-0.046-6.795,0.009c-6.095,0.15-11.016,2.597-14.489,7.674c-0.771,1.128-1.608,1.506-3.031,0.996
		c0-1.841-0.073-3.698,0.025-5.546c0.068-1.282-0.326-1.749-1.649-1.706c-2.684,0.087-5.374,0.026-8.061,0.026
		c-1.293,0-2.587,0-3.901,0c0,21.325,0,42.364,0,63.474c4.546,0,8.999,0,13.587,0c0-0.726,0-1.321,0-1.916
		c0-9.981-0.054-19.963,0.036-29.943c0.025-2.722,0.221-5.497,0.798-8.147c1.205-5.531,4.518-9.313,10.173-10.643
		c1.687-0.397,3.469-0.472,5.212-0.527c2.669-0.084,5.343-0.022,8.096-0.022C376.722,31.096,376.722,26.673,376.722,21.964z
		 M446.245,0.021c0,29.091,0,57.972,0,86.907c4.539,0,8.956,0,13.442,0c0-29.018,0-57.94,0-86.907
		C455.147,0.021,450.728,0.021,446.245,0.021z M0,0c0,29.053,0,57.966,0,87.023c2.33,0,4.514,0,6.698,0c2.177,0,4.354,0,6.594,0
		c0-29.129,0-58.042,0-87.023C8.821,0,4.502,0,0,0z M57.83,23.417c-5.314,0-10.132,0.042-14.949-0.029
		c-1.235-0.018-2.008,0.374-2.744,1.354c-4.972,6.618-9.785,13.374-15.091,19.717c-3.124,3.734-4.805,7.555-4.022,12.357
		c0.143,0.875,0.321,1.852,0.815,2.546c6.325,8.884,12.694,17.737,19.12,26.548c0.423,0.579,1.397,1.05,2.126,1.065
		c4.66,0.095,9.323,0.052,13.985,0.043c0.41-0.001,0.82-0.079,1.461-0.146C50.39,75.807,42.387,64.927,34.363,54.02
		C42.168,43.842,49.862,33.808,57.83,23.417z M503.969,23.68c-0.409-0.14-0.558-0.236-0.708-0.237
		c-4.935-0.013-9.87-0.052-14.804,0.022c-0.578,0.009-1.316,0.515-1.695,1.009c-6.242,8.129-12.446,16.286-18.625,24.462
		c-0.403,0.533-0.735,1.259-0.762,1.909c-0.094,2.189-0.073,4.386-0.007,6.578c0.017,0.56,0.246,1.193,0.575,1.651
		c6.449,8.995,12.912,17.98,19.437,26.92c0.395,0.541,1.31,0.95,2.004,0.982c2.517,0.116,5.043,0.046,7.565,0.046
		c2.552,0,5.104,0,7.99,0c-0.532-0.755-0.859-1.236-1.203-1.704c-7.399-10.065-14.786-20.138-22.225-30.173
		c-0.654-0.882-0.623-1.417,0.023-2.249c4.571-5.888,9.095-11.813,13.632-17.728C498.062,31.391,500.957,27.61,503.969,23.68z"/>
	<path fill="#FBF9DF" d="M210.214,109.238c-4.576,0-9.043,0-13.6,0c0-28.582,0-57.079,0-85.698c4.507,0,8.974,0,13.611,0
		c0,2.437,0,4.771,0,7.113c1.221,0.377,2.083,0.328,2.897-0.657c4.687-5.668,10.831-8.116,18.09-8.069
		c13.673,0.089,23.648,8.776,26.665,22.706c1.696,7.83,1.57,15.658-0.879,23.38c-3.33,10.496-12.646,17.958-23.69,18.695
		c-4.317,0.288-8.659,0.199-12.988,0.33c-1.023,0.031-1.342-0.365-1.332-1.34c0.033-3.401,0.054-6.803-0.01-10.202
		c-0.023-1.216,0.487-1.454,1.572-1.439c3.181,0.044,6.364,0.051,9.544-0.033c6.82-0.18,12.021-4.078,13.898-10.546
		c1.77-6.098,1.687-12.234-0.312-18.274c-2.148-6.488-7.331-10.221-14.197-10.518c-4.324-0.187-8.44,0.407-12.051,2.957
		c-4.22,2.979-6.15,7.315-6.843,12.263c-0.28,1.999-0.356,4.04-0.359,6.062c-0.027,17.06-0.015,34.12-0.015,51.179
		C210.214,107.802,210.214,108.456,210.214,109.238z"/>
	<path fill="#FBF9DF" d="M66.194,41.692c1.026-7.301,4.853-12.297,10.848-15.725c6.959-3.979,14.551-4.553,22.318-3.791
		c5.481,0.537,10.656,2.021,14.958,5.698c4.348,3.716,6.515,8.628,6.593,14.174c0.207,14.7,0.092,29.405,0.101,44.107
		c0,0.212-0.064,0.424-0.136,0.868c-1.839,0-3.685,0-5.532,0c-2.249,0-4.499-0.031-6.748,0.014
		c-0.926,0.018-1.284-0.319-1.252-1.243c0.047-1.355,0.012-2.713,0.012-4.641c-1.315,0.496-2.367,0.692-3.19,1.235
		c-8.751,5.777-18.121,7.873-28.311,4.683c-8.935-2.797-14.332-11.417-13.133-20.681c1.191-9.204,6.968-15.387,16.833-16.876
		c6.184-0.934,12.531-0.793,18.932-1.141c0,3.599,0,6.746,0,10.125c-2.889,0-5.725-0.062-8.557,0.021
		c-2.018,0.059-4.074,0.107-6.036,0.523c-4.746,1.006-7.229,4.125-7.282,8.78c-0.049,4.264,2.7,7.745,7.165,8.837
		c7.356,1.799,13.661-0.563,19.504-4.951c2.972-2.232,4.449-4.757,4.174-8.708c-0.398-5.733-0.034-11.515-0.124-17.274
		c-0.106-6.751-3.187-10.413-9.797-11.484c-3.422-0.555-6.887-0.437-10.225,0.776c-2.817,1.024-4.916,2.798-6.092,5.618
		c-0.175,0.42-0.665,1.006-1.017,1.011C75.608,41.715,71.012,41.692,66.194,41.692z"/>
	<path fill="#FBF9DF" d="M326.457,67.443c-1.763,6.464-5.194,11.595-10.431,15.481c-6.455,4.791-13.826,6.237-21.651,5.406
		c-8.988-0.954-16.438-4.885-21.757-12.343c-4.319-6.055-5.926-12.979-5.98-20.315c-0.06-8.154,1.69-15.775,6.837-22.338
		c5.426-6.919,12.712-10.479,21.312-11.273c7.558-0.698,14.757,0.609,21.083,5.167c6.623,4.772,10.122,11.43,11.163,19.361
		c0.503,3.832,0.402,7.742,0.581,11.768c-12.98,0-25.668,0-38.461,0c0-3.187,0-6.335,0-9.64c8.26,0,16.465,0,24.65,0
		c0.56-4.766-2.917-10.806-7.321-12.908c-11.664-5.567-23.84,0.918-25.752,13.764c-0.808,5.431-0.707,10.83,1.294,16.041
		c2.778,7.233,9.594,11.254,17.336,10.539c5.803-0.536,10.38-2.844,13.282-8.063c0.171-0.307,0.662-0.616,1.007-0.619
		C317.864,67.428,322.079,67.443,326.457,67.443z"/>
	<path fill="#FBF9DF" d="M131.664,67.442c4.586,0,8.968-0.018,13.349,0.034c0.355,0.004,0.896,0.422,1.027,0.77
		c1.76,4.675,5.282,7.158,10.039,7.967c4.669,0.794,9.307,0.752,13.591-1.652c2.853-1.601,4.021-4.434,3.495-8.022
		c-0.45-3.074-2.571-4.579-5.319-5.051c-3.823-0.656-7.701-1.019-11.565-1.407c-4.65-0.467-9.232-1.156-13.51-3.185
		c-10.254-4.865-10.647-16.245-7.163-23.189c2.248-4.481,5.893-7.537,10.46-9.301c9.116-3.521,18.367-3.659,27.371,0.282
		c7.141,3.126,10.833,8.92,11.432,16.805c-0.425,0.078-0.781,0.199-1.137,0.201c-3.565,0.015-7.131,0.037-10.696-0.02
		c-0.492-0.008-1.335-0.346-1.412-0.673c-1.029-4.349-4.199-6.243-8.16-7.111c-4.232-0.927-8.441-0.755-12.281,1.458
		c-1.22,0.703-2.395,1.849-3.06,3.078c-1.895,3.501-0.517,7.174,3.397,8.451c2.982,0.973,6.19,1.28,9.313,1.79
		c4.584,0.748,9.272,1.056,13.753,2.19c8.246,2.087,12.585,8.323,12.354,16.905c-0.235,8.754-5.16,15.587-13.887,18.613
		c-9.529,3.304-19.105,3.151-28.34-1.064c-7.067-3.226-11.447-8.823-12.965-16.531C131.679,68.413,131.7,68.027,131.664,67.442z"/>
	<path fill="#FBF9DF" d="M381.253,67.441c4.548,0,8.931-0.023,13.313,0.039c0.392,0.005,0.984,0.475,1.133,0.863
		c1.765,4.602,5.258,7.045,9.94,7.864c4.611,0.806,9.207,0.764,13.461-1.536c3.397-1.836,4.766-5.925,3.3-9.506
		c-1.246-3.044-4.037-3.699-6.831-4.07c-4.939-0.657-9.922-1-14.854-1.703c-4.608-0.657-9.002-2.078-12.518-5.325
		c-5.914-5.462-6.634-15.71-1.622-22.602c3.804-5.23,9.197-7.828,15.393-8.9c7.558-1.307,15.01-1.018,21.982,2.53
		c6.603,3.36,9.988,8.932,10.518,16.4c-0.449,0.08-0.809,0.197-1.169,0.199c-3.567,0.014-7.134,0.045-10.7-0.03
		c-0.493-0.01-1.307-0.486-1.409-0.888c-0.874-3.458-3.237-5.427-6.446-6.402c-5.248-1.594-10.462-1.612-15.084,1.744
		c-4.269,3.1-3.536,8.943,1.412,10.703c2.946,1.048,6.179,1.316,9.298,1.841c4.794,0.806,9.7,1.153,14.382,2.373
		c7.923,2.065,12.24,8.988,11.855,17.155c-0.442,9.398-6.769,17.014-18.116,19.455c-7.358,1.583-14.75,1.372-21.866-1.325
		c-8.286-3.141-13.622-8.951-15.305-17.827C381.272,68.228,381.285,67.952,381.253,67.441z"/>
	<path fill="#FBF9DF" d="M521.107,109.367c2.689-5.866,5.222-11.389,7.755-16.913c1.622-3.536,3.293-7.05,4.823-10.626
		c0.294-0.687,0.296-1.734-0.015-2.408c-7.077-15.303-14.217-30.577-21.342-45.858c-1.524-3.268-3.036-6.541-4.661-10.043
		c0.764-0.04,1.339-0.096,1.915-0.097c3.95-0.008,7.901-0.04,11.85,0.037c0.566,0.011,1.426,0.436,1.636,0.901
		c5.306,11.773,10.556,23.572,15.775,35.384c0.572,1.294,0.831,2.724,1.379,4.031c0.178,0.424,0.807,0.894,1.245,0.909
		c0.443,0.015,1.153-0.404,1.321-0.809c2.839-6.817,5.524-13.699,8.424-20.49c2.603-6.095,5.471-12.075,8.115-18.153
		c0.624-1.435,1.426-1.893,2.952-1.851c3.947,0.109,7.9,0.037,11.85,0.047c0.26,0.001,0.52,0.083,0.964,0.159
		c-0.23,0.587-0.396,1.079-0.612,1.548c-12.697,27.568-25.405,55.13-38.072,82.711c-0.546,1.189-1.214,1.576-2.493,1.551
		C529.759,109.316,525.602,109.367,521.107,109.367z"/>
	<path fill="#FBF9DF" d="M376.722,21.964c0,4.709,0,9.132,0,13.729c-2.753,0-5.427-0.062-8.096,0.022
		c-1.743,0.055-3.525,0.13-5.212,0.527c-5.655,1.33-8.968,5.111-10.173,10.643c-0.577,2.65-0.774,5.425-0.798,8.147
		c-0.09,9.98-0.036,19.962-0.036,29.943c0,0.595,0,1.19,0,1.916c-4.588,0-9.041,0-13.587,0c0-21.11,0-42.149,0-63.474
		c1.315,0,2.608,0,3.901,0c2.687,0,5.376,0.061,8.061-0.026c1.324-0.043,1.718,0.424,1.649,1.706
		c-0.098,1.848-0.025,3.705-0.025,5.546c1.423,0.51,2.26,0.131,3.031-0.996c3.473-5.078,8.394-7.524,14.489-7.674
		C372.158,21.918,374.391,21.964,376.722,21.964z"/>
	<path fill="#FBF9DF" d="M446.245,0.021c4.483,0,8.902,0,13.442,0c0,28.966,0,57.889,0,86.907c-4.486,0-8.903,0-13.442,0
		C446.245,57.993,446.245,29.112,446.245,0.021z"/>
	<path fill="#FBF9DF" d="M0,0c4.502,0,8.821,0,13.292,0c0,28.981,0,57.894,0,87.023c-2.24,0-4.417,0-6.594,0
		c-2.184,0-4.368,0-6.698,0C0,57.966,0,29.053,0,0z"/>
	<path fill="#FBF9DF" d="M57.83,23.417C49.862,33.808,42.168,43.842,34.363,54.02c8.023,10.907,16.027,21.787,24.166,32.852
		c-0.64,0.066-1.051,0.145-1.461,0.146c-4.662,0.009-9.325,0.052-13.985-0.043c-0.728-0.015-1.703-0.485-2.126-1.065
		c-6.426-8.811-12.795-17.664-19.12-26.548c-0.494-0.694-0.672-1.671-0.815-2.546c-0.783-4.802,0.899-8.623,4.022-12.357
		c5.306-6.342,10.119-13.098,15.091-19.717c0.736-0.979,1.509-1.372,2.744-1.354C47.698,23.46,52.516,23.417,57.83,23.417z"/>
	<path fill="#FBF9DF" d="M503.969,23.68c-3.012,3.93-5.907,7.711-8.805,11.489c-4.537,5.915-9.061,11.84-13.632,17.728
		c-0.646,0.832-0.677,1.367-0.023,2.249c7.439,10.035,14.826,20.108,22.225,30.173c0.344,0.468,0.67,0.949,1.203,1.704
		c-2.886,0-5.438,0-7.99,0c-2.522,0-5.048,0.07-7.565-0.046c-0.694-0.032-1.609-0.441-2.004-0.982
		c-6.524-8.94-12.987-17.925-19.437-26.92c-0.329-0.458-0.558-1.092-0.575-1.651c-0.066-2.191-0.086-4.388,0.007-6.578
		c0.028-0.651,0.36-1.377,0.762-1.909c6.18-8.176,12.384-16.334,18.625-24.462c0.379-0.494,1.117-1,1.695-1.009
		c4.934-0.074,9.869-0.036,14.804-0.022C503.41,23.444,503.56,23.54,503.969,23.68z"/>
</g>
</svg>
