<?xml version="1.0" encoding="utf-8"?>
<!-- Generator: Adobe Illustrator 17.0.0, SVG Export Plug-In . SVG Version: 6.00 Build 0)  -->
<!DOCTYPE svg PUBLIC "-//W3C//DTD SVG 1.1//EN" "http://www.w3.org/Graphics/SVG/1.1/DTD/svg11.dtd">
<svg version="1.1" id="Layer_1" xmlns="http://www.w3.org/2000/svg" xmlns:xlink="http://www.w3.org/1999/xlink" x="0px" y="0px"
	viewBox="58.628 350.714 478.283 153.746"
	 enable-background="new 58.628 350.714 478.283 153.746" xml:space="preserve">
<g>
	<g>
		<rect x="393.717" y="361.598" fill="#FBF9DF" width="11.143" height="75.784"/>
		<path fill="#FBF9DF" d="M423.714,423.694c-4.169,0-7.527,3.358-7.527,7.527c0,4.169,3.358,7.527,7.527,7.527
			c4.169,0,7.527-3.358,7.527-7.527C431.24,427.051,427.883,423.694,423.714,423.694z"/>
		<path fill="#FBF9DF" d="M453.009,411.002c0-9.04,5.424-16.788,15.939-16.788h6.641v-10.552h-6.641
			c-8.228,0-11.991,2.62-15.828,6.973l-0.074,0.111v-7.084h-11.032v53.684h10.995C453.009,437.308,453.009,414.654,453.009,411.002z
			"/>
		<rect x="370.473" y="383.662" fill="#FBF9DF" width="11.143" height="53.684"/>
		<path fill="#FBF9DF" d="M376.044,374.77c4.169,0,7.527-3.358,7.527-7.527c0-4.169-3.394-7.527-7.527-7.527
			c-4.169,0-7.527,3.358-7.527,7.527C368.517,371.412,371.912,374.77,376.044,374.77z"/>
		<path fill="#FBF9DF" d="M347.45,389.085c-4.28-4.354-10.847-6.789-17.378-6.789c-15.57,0-28.225,12.655-28.225,28.225
			c0,15.57,12.655,28.225,28.225,28.225c6.531,0,13.43-2.804,17.378-7.232v5.866h10.958v-53.721H347.45V389.085z M330.441,427.531
			c-9.593,0-16.898-7.379-16.898-17.009s7.305-16.935,16.898-16.935l0,0c9.593,0,17.157,6.863,17.157,16.935
			S340.033,427.531,330.441,427.531z"/>
		<path fill="#FBF9DF" d="M506.434,438.747c4.981,0,11.327-2.693,15.312-7.269c0.037,2.029,0,3.874,0,5.866h10.958v-23.429v-30.255
			h-10.995v29.48c0,7.637-5.83,14.758-14.574,14.758c-7.637,0-13.061-5.534-13.061-13.467v-30.734h-10.995v31.657
			C483.116,429.523,490.754,438.747,506.434,438.747z"/>
		<path fill="#FBF9DF" d="M269.673,382.296c-7.305,0-14.463,3.321-18.817,8.56c-3.985-5.276-9.777-8.56-17.562-8.56
			c-6.346,0-10.884,2.841-13.319,5.129v-3.763h-10.958v53.684h10.958v-31.398c0-7.01,5.719-12.692,12.692-12.692
			c6.973,0,12.692,5.719,12.692,12.692v31.398h10.958v-31.398c0-7.01,5.719-12.692,12.692-12.692s12.692,5.719,12.692,12.692v31.398
			h10.958v-31.398C292.733,391.557,283.398,382.296,269.673,382.296z"/>
		<path fill="#FBF9DF" d="M414.379,462.176L414.379,462.176l-0.074,0.074v-4.169h-3.21h-3.247h-0.553v31.509h0.553l0,0h6.457
			c0-0.037,0-12.618,0-14.758c0-5.313,3.173-9.851,9.335-9.851h3.874v-6.9h-3.874C418.843,458.081,416.63,459.63,414.379,462.176z"
			/>
		<path fill="#FBF9DF" d="M489.757,475.348L489.757,475.348c0,5.055-4.059,8.08-8.006,8.08c-4.169,0-7.121-3.025-7.121-7.342
			v-17.968h-7.047v18.485c0,8.744,5.018,13.799,13.725,13.799c2.841,0,6.199-1.439,8.412-3.616c0,0.553,0,1.107,0,1.66v1.181h7.01
			v-31.509h-7.047L489.757,475.348L489.757,475.348z"/>
		<path fill="#FBF9DF" d="M445.777,457.306c-9.113,0-16.529,7.416-16.529,16.529s7.416,16.529,16.529,16.529
			c9.113,0,16.529-7.416,16.529-16.529S454.928,457.306,445.777,457.306z M445.777,483.355c-5.239,0-9.519-4.28-9.519-9.519
			s4.28-9.519,9.519-9.519c5.239,0,9.519,4.28,9.519,9.519S451.054,483.355,445.777,483.355z"/>
		<path fill="#FBF9DF" d="M520.381,457.306L520.381,457.306c-3.616,0-7.121,1.254-9.593,3.394v-2.62h-7.01v42.357h7.01v-13.652
			c2.361,2.214,6.014,3.616,9.593,3.616c9.113,0,16.529-7.416,16.529-16.529C536.911,464.722,529.494,457.306,520.381,457.306z
			 M520.16,483.207c-5.498,0-9.482-3.948-9.482-9.372s3.985-9.335,9.482-9.335c5.313,0,9.335,4.022,9.335,9.335
			C529.494,479.185,525.473,483.207,520.16,483.207z"/>
		<path fill="#FBF9DF" d="M393.311,460.7c-2.472-2.14-5.977-3.394-9.593-3.394c-9.113,0-16.529,7.416-16.529,16.529
			c0,9.113,7.416,16.529,16.529,16.529c3.579,0,7.232-1.402,9.593-3.616v0.627c-0.111,6.457-3.247,9.741-9.372,9.741h-0.074
			c-3.468,0-6.531-1.328-9.372-4.095l-0.258-0.258l-5.092,4.87l0.221,0.258c2.62,3.062,7.933,6.567,14.316,6.567
			c0.111,0,0.221,0,0.332,0c5.977-0.111,16.013-2.435,16.308-16.825v-29.591h-7.01V460.7z M383.94,483.207
			c-5.313,0-9.335-4.022-9.335-9.372c0-5.313,4.022-9.335,9.335-9.335c5.497,0,9.482,3.911,9.482,9.335
			C393.385,479.259,389.437,483.207,383.94,483.207z"/>
	</g>
	<path fill="#FBF9DF" d="M135.224,409.563c0,9.777-7.933,17.71-17.71,17.71s-17.71-7.933-17.71-17.71
		c0-9.777,7.933-17.71,17.71-17.71S135.224,399.822,135.224,409.563 M117.514,350.714c-32.468,0-58.886,26.418-58.886,58.886
		s26.418,58.849,58.886,58.849c11.881,0,23.355-3.542,33.169-10.257l0.184-0.111l-7.933-9.224l-0.148,0.074
		c-7.564,4.833-16.271,7.416-25.274,7.416c-25.79,0-46.784-20.994-46.784-46.784s20.994-46.784,46.784-46.784
		s46.784,20.994,46.784,46.784c0,3.358-0.369,6.715-1.107,10.073c-1.476,6.088-5.719,7.933-8.929,7.674
		c-3.21-0.258-6.973-2.546-7.01-8.154v-9.593c0-16.419-13.356-29.775-29.775-29.775s-29.775,13.356-29.775,29.775
		c0,16.419,13.356,29.775,29.775,29.775c7.97,0,15.459-3.136,21.105-8.781c3.284,5.092,8.634,8.302,14.721,8.781
		c0.517,0.037,1.07,0.074,1.587,0.074c4.28,0,8.523-1.439,11.954-4.022c3.542-2.693,6.162-6.567,7.601-11.216
		c0.221-0.738,0.664-2.472,0.664-2.472v-0.074c0.849-3.727,1.254-7.453,1.254-12.065C176.4,377.131,149.982,350.714,117.514,350.714
		"/>
</g>
</svg>
