<?xml version="1.0" encoding="utf-8"?>
<!-- Generator: Adobe Illustrator 17.0.0, SVG Export Plug-In . SVG Version: 6.00 Build 0)  -->
<!DOCTYPE svg PUBLIC "-//W3C//DTD SVG 1.1//EN" "http://www.w3.org/Graphics/SVG/1.1/DTD/svg11.dtd">
<svg version="1.1" id="Layer_1" xmlns="http://www.w3.org/2000/svg" xmlns:xlink="http://www.w3.org/1999/xlink" x="0px" y="0px"
	viewBox="0 0 65.016 31.707" enable-background="new 0 0 65.016 31.707" xml:space="preserve">
<g>
	<path fill-rule="evenodd" clip-rule="evenodd" fill="#FBFAE1" d="M33.736,27.489c-1.256-0.083-2.705-0.303-3.848-0.635
		c-0.214-0.062-1.1-0.388-1.325-0.492c-3.978-1.843-6.75-5.866-6.75-10.533c0-6.402,5.208-11.615,11.614-11.615
		c6.348,0,11.521,5.126,11.609,11.453h4.195C49.144,7.027,42.089,0.024,33.427,0.024c-8.716,0-15.809,7.091-15.809,15.806
		c0,6.009,3.379,11.236,8.329,13.906c0.892,0.473,2.175,0.959,2.611,1.093c1.41,0.421,3.141,0.698,4.683,0.816
		c0.522,0.04,2.349,0.06,2.882,0.062l0,0h28.894v-4.179H36.171C35.788,27.529,34.111,27.514,33.736,27.489z M36.171,20.927
		L36.171,20.927c-0.304,0-1.9-0.01-2.195-0.035c-0.499-0.042-1.223-0.117-1.689-0.224c-0.525-0.141-1.018-0.326-1.241-0.448
		c-1.559-0.844-2.621-2.491-2.621-4.39c0-2.762,2.237-5.001,5.001-5.001c2.705,0,4.904,2.152,4.992,4.839h4.031
		c-0.085-4.913-4.089-8.87-9.023-8.87c-4.99,0-9.036,4.043-9.036,9.032c0,3.518,2.016,6.557,4.954,8.045
		c0.452,0.264,1.302,0.541,1.544,0.605c0.829,0.218,1.942,0.367,2.846,0.433c0.335,0.027,1.97,0.04,2.316,0.042v0.006h28.962v-4.034
		H36.171z M15.032,31.691H10.81V4.223H4.636V0h10.396V31.691z M0,6.334v4.062h4.636v21.295h4.059V6.334H0z"/>
	<path fill="#FBFAE1" d="M57.552,0.295c-1.522,0-2.782,1.212-2.782,2.735c0,1.522,1.261,2.782,2.782,2.782
		c1.568,0,2.78-1.261,2.78-2.782C60.332,1.507,59.12,0.295,57.552,0.295z M57.552,5.364c-1.257,0-2.339-0.988-2.339-2.334
		c0-1.279,1.083-2.292,2.339-2.292c1.256,0,2.333,1.013,2.333,2.292C59.885,4.376,58.808,5.364,57.552,5.364z"/>
	<path fill="#FBFAE1" d="M58.611,3.779c0-0.307-0.045-0.592-0.397-0.704c0.441-0.154,0.484-0.443,0.484-0.617
		c0-0.707-0.641-0.797-0.905-0.797H56.58v2.736h0.507V3.274h0.398c0.572,0,0.62,0.264,0.62,0.505c0,0.467,0,0.554,0.109,0.618h0.508
		C58.611,4.287,58.655,4.2,58.611,3.779z M57.683,2.876h-0.596V2.015h0.51c0.353,0,0.595,0.111,0.595,0.443
		C58.192,2.632,58.105,2.876,57.683,2.876z"/>
</g>
</svg>
