<?xml version="1.0" encoding="utf-8"?>
<!-- Generator: Adobe Illustrator 17.0.0, SVG Export Plug-In . SVG Version: 6.00 Build 0)  -->
<!DOCTYPE svg PUBLIC "-//W3C//DTD SVG 1.1//EN" "http://www.w3.org/Graphics/SVG/1.1/DTD/svg11.dtd">
<svg version="1.1" id="Layer_1" xmlns="http://www.w3.org/2000/svg" xmlns:xlink="http://www.w3.org/1999/xlink" x="0px" y="0px"
	viewBox="0 364.619 595.28 112.658" enable-background="new 0 364.619 595.28 112.658"
	 xml:space="preserve">
<title>Sberbank Logo</title>
<path fill="#FBF9DF" d="M155.203,434.115c2.546,2.677,5.628,4.787,9.046,6.191c4.16,1.55,8.574,2.305,13.012,2.224
	c2.539,0,4.914-0.316,6.863-0.48c1.947-0.252,3.861-0.712,5.71-1.373c1.743-0.48,3.171-1.277,4.598-1.743
	c1.13-0.644,2.293-1.226,3.486-1.743l-1.771-3.72c-0.947,0.48-1.908,0.947-3.02,1.373c-1.034,0.476-2.093,0.897-3.171,1.263
	c-1.283,0.432-2.616,0.7-3.967,0.796c-1.732,0.284-3.489,0.39-5.243,0.316c-3.164,0.118-6.297-0.652-9.046-2.224
	c-2.315-1.442-4.268-3.395-5.71-5.71c-1.361-2.692-2.288-5.583-2.745-8.565c-0.519-3.573-0.785-7.178-0.796-10.789
	c0-3.02,0.316-6.191,0.48-9.361c0.24-2.875,1.008-5.68,2.265-8.277c1.131-2.42,2.814-4.54,4.914-6.191
	c2.659-1.684,5.747-2.566,8.895-2.539c3.175-0.042,6.283,0.919,8.881,2.745c2.539,1.743,3.967,4.598,4.598,8.414h3.967v-12.175
	c-1.263-0.48-2.539-0.947-3.967-1.373c-1.494-0.482-3.036-0.8-4.598-0.947c-1.743-0.316-3.171-0.316-4.914-0.48
	c-1.373,0-3.02-0.316-4.118-0.316c-4.698-0.076-9.372,0.677-13.809,2.224c-7.339,2.713-12.863,8.879-14.756,16.471
	c-1.265,4.383-1.852,8.933-1.743,13.493c-0.101,4.352,0.488,8.693,1.743,12.862C151.114,428.045,152.801,431.354,155.203,434.115z"
	/>
<path fill="#FBF9DF" d="M395.947,440.471c2.843-0.29,5.599-1.154,8.098-2.539c2.513-1.404,4.514-3.572,5.71-6.191
	c1.626-3.468,2.389-7.278,2.224-11.105c0.102-2.917-0.364-5.826-1.373-8.565c-0.967-2.342-2.557-4.373-4.598-5.875
	c-2.566-1.607-5.426-2.685-8.414-3.171c-4.131-0.766-8.333-1.083-12.532-0.947h-5.243V387.46c-0.138-1.096,0.208-2.199,0.947-3.02
	c1.263-0.483,2.625-0.648,3.967-0.48h7.453c1.909-0.072,3.821,0.034,5.71,0.316c1.262,0.075,2.475,0.519,3.486,1.277
	c0.997,0.79,1.765,1.833,2.224,3.02c0.725,1.692,1.309,3.441,1.743,5.23h3.075v-13.644h-45.297v1.908
	c0.316,0,0.48,0.316,1.263,0.316c0.796,0.316,1.277,0.48,1.373,0.796c0.327,0.419,0.595,0.881,0.796,1.373
	c0,0.796,0.316,1.373,0.316,2.539v46.971c0.072,0.859-0.036,1.724-0.316,2.539c0,0.796-0.316,1.263-0.796,1.373
	c-0.339,0.431-0.83,0.716-1.373,0.796c-0.39,0.205-0.823,0.313-1.263,0.316v1.908h22.854
	C389.311,440.991,392.637,440.817,395.947,440.471z M380.972,436.023c-0.51-0.435-0.802-1.073-0.796-1.743
	c0-0.796-0.316-1.743-0.316-3.02v-25.545h5.243c4.598,0,8.098,1.263,10.157,3.651c2.059,2.388,3.02,6.342,3.02,11.75
	c0.084,2.885-0.235,5.768-0.947,8.565c-0.515,1.831-1.456,3.515-2.745,4.914c-1.128,0.878-2.353,1.624-3.651,2.224
	c-1.461,0.316-2.952,0.477-4.447,0.48c-1.373-0.316-2.745-0.316-3.486-0.48C382.251,436.818,381.526,436.534,380.972,436.023z"/>
<path fill="#FBF9DF" d="M331.201,439.043c-0.316,0-0.48-0.316-1.263-0.316c-0.796-0.316-1.277-0.48-1.373-0.796
	s-0.48-0.796-0.796-1.373c0-0.796-0.316-1.373-0.316-2.539v-16.883h6.191c3.032-0.015,6.058-0.281,9.046-0.796
	c2.69-0.427,5.274-1.359,7.618-2.745c2.291-1.396,4.116-3.441,5.243-5.875c1.407-3.194,2.06-6.67,1.908-10.157
	c0.05-3.206-0.543-6.389-1.743-9.361c-1.221-2.131-2.911-3.957-4.941-5.34c-2.177-1.279-4.619-2.039-7.138-2.224
	c-2.793-0.327-5.602-0.487-8.414-0.48h-24.172v1.908c0.316,0,0.48,0.316,1.277,0.316c0.796,0.316,1.263,0.48,1.373,0.796
	c0.328,0.418,0.596,0.88,0.796,1.373c0,0.796,0.316,1.373,0.316,2.539v46.82c0.074,0.859-0.034,1.724-0.316,2.539
	c0,0.796-0.316,1.263-0.796,1.373c-0.339,0.431-0.83,0.716-1.373,0.796c-0.394,0.207-0.832,0.315-1.277,0.316v1.743h19.999
	l0.151-1.743V439.043z M327.865,386.993c-0.037-0.479,0.073-0.958,0.316-1.373c0.027-0.367,0.2-0.709,0.48-0.947
	c0.378-0.331,0.87-0.503,1.373-0.48c0.796,0,1.373-0.316,2.745-0.316c1.49,0.081,2.974,0.241,4.447,0.48
	c1.354,0.489,2.595,1.245,3.651,2.224c1.042,1.242,1.898,2.629,2.539,4.118c0.539,2.07,0.806,4.202,0.796,6.342
	c0,5.23-0.796,9.046-2.224,11.75c-1.428,2.704-4.118,4.118-7.934,4.118h-6.191V386.993z"/>
<path fill="#FBF9DF" d="M303.117,426.978h-3.967c-0.344,1.929-0.802,3.836-1.373,5.71c-0.266,1.239-0.938,2.355-1.908,3.171
	c-0.939,0.883-2.2,1.34-3.486,1.263c-2.049,0.3-4.122,0.406-6.191,0.316c-1.909,0.093-3.823-0.012-5.71-0.316
	c-1.104-0.126-2.178-0.447-3.171-0.947c-0.709-0.389-1.182-1.103-1.263-1.908c-0.293-1.137-0.399-2.315-0.316-3.486v-19.354h10.528
	c0.947,0,1.908,0.316,3.02,0.316c1.016,0.094,2.025,0.254,3.02,0.48c0.88,0.219,1.731,0.537,2.539,0.947v-7.934
	c-0.764,0.503-1.632,0.827-2.539,0.947c-1.993,0.37-4.005,0.636-6.026,0.796h-10.638v-20.178c0.003-0.936,0.165-1.864,0.48-2.745
	c0.48-0.48,1.277-0.48,2.539-0.48h6.671c1.909-0.072,3.821,0.034,5.71,0.316c1.255,0.1,2.459,0.536,3.486,1.263
	c0.997,0.79,1.765,1.833,2.224,3.02c0.725,1.697,1.308,3.45,1.743,5.243h3.171v-13.26h-42.346v1.908c0.316,0,0.48,0.316,1.263,0.316
	c0.796,0.316,1.263,0.48,1.373,0.796c0.328,0.418,0.596,0.88,0.796,1.373c0,0.796,0.316,1.373,0.316,2.539v46.82
	c0.073,0.859-0.035,1.724-0.316,2.539c0,0.796-0.316,1.263-0.796,1.373c-0.339,0.431-0.83,0.716-1.373,0.796
	c-0.39,0.205-0.823,0.313-1.263,0.316v1.743h43.8V426.978z"/>
<path fill="#FBF9DF" d="M236.146,440.471c2.843-0.29,5.599-1.154,8.098-2.539c2.525-1.44,4.569-3.593,5.875-6.191
	c1.627-3.468,2.39-7.278,2.224-11.105c0.103-2.917-0.363-5.826-1.373-8.565c-0.967-2.342-2.558-4.373-4.598-5.875
	c-2.566-1.607-5.426-2.685-8.414-3.171c-4.131-0.766-8.333-1.084-12.532-0.947h-5.243V387.46c-0.136-1.096,0.209-2.198,0.947-3.02
	c1.263-0.483,2.625-0.648,3.967-0.48h7.453c1.909-0.072,3.821,0.034,5.71,0.316c1.256,0.104,2.46,0.545,3.486,1.277
	c0.997,0.79,1.765,1.833,2.224,3.02c0.726,1.691,1.309,3.441,1.743,5.23h3.171v-13.644H203.45v1.908c0.316,0,0.48,0.316,1.277,0.316
	c0.796,0.316,1.263,0.48,1.373,0.796c0.327,0.419,0.595,0.881,0.796,1.373c0,0.796,0.316,1.373,0.316,2.539v46.82
	c0.061,0.859-0.046,1.721-0.316,2.539c0,0.796-0.316,1.263-0.796,1.373c-0.339,0.431-0.83,0.716-1.373,0.796
	c-0.394,0.207-0.832,0.315-1.277,0.316v2.224h22.854C229.983,440.951,232.962,440.951,236.146,440.471z M221.226,436.023
	c-0.51-0.435-0.802-1.073-0.796-1.743c0-0.796-0.316-1.743-0.316-3.02v-25.545h5.243c4.598,0,8.098,1.263,10.157,3.651
	c2.059,2.388,3.02,6.342,3.02,11.75c0.083,2.885-0.236,5.768-0.947,8.565c-0.515,1.831-1.456,3.515-2.745,4.914
	c-1.128,0.878-2.353,1.624-3.651,2.224c-1.461,0.317-2.952,0.478-4.447,0.48c-1.373-0.316-2.539-0.316-3.486-0.48
	C222.499,436.846,221.764,436.558,221.226,436.023L221.226,436.023z"/>
<rect x="148.23" y="458.232" fill="#FBF9DF" width="446.584" height="5.875"/>
<path fill="#FBF9DF" d="M559.098,418.097c1.277,1.743,2.224,3.171,3.486,4.598c0.947,1.373,2.224,3.02,3.171,4.447
	c0.951,1.555,2.011,3.041,3.171,4.447c1.168,1.563,2.228,3.205,3.171,4.914c0.947,1.373,1.743,3.171,2.539,4.598l20.589,0.316
	c-2.224-2.224-4.118-4.447-6.342-6.671c-1.908-2.224-3.651-4.118-4.928-5.394c-1.908-2.224-3.651-4.118-5.23-5.875
	c-1.578-1.757-3.171-3.651-4.598-5.394c-1.471-1.721-2.846-3.521-4.118-5.394c-1.112-1.743-2.745-3.967-3.967-5.875l0.947-1.263
	c1.373-1.908,3.171-3.967,5.243-6.342c1.892-2.523,3.96-4.908,6.191-7.138c2.007-2.327,4.138-4.545,6.383-6.644
	c1.8-1.656,3.708-3.192,5.71-4.598h-14.289c-0.644,1.529-1.387,3.015-2.224,4.447c-1.003,1.974-2.169,3.862-3.487,5.641
	c-1.263,1.908-2.745,4.118-3.967,6.342c-1.222,2.224-2.745,4.118-4.118,6.191s-2.745,3.967-3.967,5.394
	c-1.263,1.743-2.224,3.02-3.02,4.118C556.558,414.597,557.821,416.354,559.098,418.097z"/>
<path fill="#FBF9DF" d="M557.354,439.043c-0.316,0-0.48-0.316-1.277-0.316c-0.796-0.316-1.263-0.48-1.373-0.796
	c-0.328-0.418-0.596-0.88-0.796-1.373c0-0.796-0.316-1.373-0.316-2.539V387.35c-0.074-0.859,0.034-1.724,0.316-2.539
	c0-0.796,0.316-1.263,0.796-1.373c0.418-0.328,0.88-0.596,1.373-0.796c0.394-0.207,0.832-0.315,1.277-0.316v-2.059h-19.999v1.908
	c0.316,0,0.48,0.316,1.276,0.316c0.796,0.316,1.263,0.48,1.373,0.796c0.328,0.418,0.596,0.88,0.796,1.373
	c0,0.796,0.316,1.373,0.316,2.539v46.82c0.074,0.859-0.034,1.724-0.316,2.539c0,0.796-0.316,1.263-0.796,1.373
	c-0.338,0.432-0.83,0.718-1.373,0.796c-0.394,0.207-0.832,0.315-1.276,0.316v1.743h19.999V439.043z"/>
<path fill="#FBF9DF" d="M424.896,433.649c0.796-3.486,2.224-8.414,4.118-14.605h19.519l2.745,7.934
	c1.146,2.884,2.064,5.853,2.745,8.881c0.662,1.733,1.087,3.548,1.263,5.394h15.552c-0.796-1.263-1.373-3.02-2.539-4.914
	c-1.334-2.782-2.498-5.642-3.486-8.565l-14.111-39.998c-0.583-1.433-1.011-2.924-1.277-4.447c-0.316-1.263-0.316-2.224-0.48-3.02
	h-17.446v1.908c0.316,0,0.48,0.316,1.263,0.316c0.796,0.316,1.263,0.48,1.373,0.796c0.328,0.418,0.596,0.88,0.796,1.373v1.263
	c0.013,1.363-0.258,2.714-0.796,3.967l-9.842,24.117c-1.743,4.447-3.486,8.414-4.598,11.269c-1.112,2.855-2.539,5.71-3.171,7.618
	c-0.947,1.908-1.743,3.651-2.539,4.914c-0.636,1.026-1.218,2.084-1.743,3.171h11.105
	C423.715,438.534,424.233,436.073,424.896,433.649z M438.869,390.164l7.989,24.597h-16.787L438.869,390.164z"/>
<path fill="#FBF9DF" d="M494.021,439.043h-0.494c-0.316,0-0.48-0.316-1.277-0.316c-0.796-0.316-1.263-0.48-1.373-0.796
	c-0.328-0.419-0.595-0.88-0.796-1.373c0-0.796-0.316-1.373-0.316-2.539v-23.335h23.65v23.17c0.074,0.859-0.034,1.724-0.316,2.539
	c0,0.796-0.316,1.263-0.796,1.373c-0.339,0.431-0.83,0.716-1.373,0.796c-0.39,0.205-0.823,0.313-1.263,0.316v1.908h19.999v-1.908
	c-0.316,0-0.48-0.316-1.263-0.316c-0.796-0.316-1.277-0.48-1.373-0.796c-0.329-0.417-0.597-0.88-0.796-1.373
	c0-0.796-0.316-1.373-0.316-2.539v-47.054c-0.074-0.859,0.034-1.724,0.316-2.539c0-0.796,0.316-1.263,0.796-1.373
	c0.418-0.328,0.88-0.596,1.373-0.796c0.39-0.205,0.823-0.313,1.263-0.316v-1.62h-19.67v1.908c0.316,0,0.48,0.316,1.263,0.316
	c0.796,0.316,1.277,0.48,1.373,0.796c0.328,0.418,0.596,0.88,0.796,1.373c0,0.796,0.316,1.373,0.316,2.539v19.574h-23.362v-19.67
	c-0.072-0.859,0.036-1.724,0.316-2.539c0-0.796,0.316-1.263,0.796-1.373c0.418-0.328,0.88-0.596,1.373-0.796
	c0.384-0.22,0.821-0.329,1.263-0.316v-1.812h-19.944v1.908c0.316,0,0.48,0.316,1.263,0.316c0.796,0.316,1.263,0.48,1.373,0.796
	c0.327,0.419,0.595,0.881,0.796,1.373c0,0.796,0.316,1.373,0.316,2.539v46.971c0.062,0.859-0.046,1.722-0.316,2.539
	c0,0.796-0.316,1.263-0.796,1.373c-0.339,0.431-0.83,0.716-1.373,0.796c-0.39,0.205-0.823,0.313-1.263,0.316v1.908h19.999
	l-0.165-2.059L494.021,439.043z"/>
<path fill="#FBF9DF" d="M107.6,386.513c-1.277-1.743-2.539-3.486-3.651-5.243l-68.247,39.202L2.759,401.584
	c-0.756,2.038-1.218,4.173-1.373,6.342l34.631,20.054L107.6,386.513z"/>
<path fill="#FBF9DF" d="M35.702,435.227L0.316,414.912c-0.262,1.249-0.368,2.527-0.316,3.802c0,32.343,26.22,58.563,58.563,58.563
	s58.563-26.22,58.563-58.563c0.066-9.267-2.11-18.412-6.342-26.656L35.702,435.227z"/>
<path fill="#FBF9DF" d="M99.186,376.355c-1.668-1.574-3.418-3.059-5.243-4.447l-58.24,33.808L7.618,389.683
	c-0.947,1.743-1.908,3.651-3.02,5.71l30.788,17.775L99.186,376.355z"/>
<path fill="#FBF9DF" d="M88.232,368.106c-2.204-1.32-4.497-2.485-6.863-3.486l-45.667,26.299l-20.466-11.544
	c-1.373,1.373-2.745,3.171-4.118,4.914l24.433,13.973L88.232,368.106z"/>
</svg>
