<?xml version="1.0" encoding="utf-8"?>
<!-- Generator: Adobe Illustrator 17.0.0, SVG Export Plug-In . SVG Version: 6.00 Build 0)  -->
<!DOCTYPE svg PUBLIC "-//W3C//DTD SVG 1.1//EN" "http://www.w3.org/Graphics/SVG/1.1/DTD/svg11.dtd">
<svg version="1.1" xmlns="http://www.w3.org/2000/svg" xmlns:xlink="http://www.w3.org/1999/xlink" x="0px" y="0px"
	viewBox="0 0 348.602 133.473" enable-background="new 0 0 348.602 133.473" xml:space="preserve">
<g id="SAFE_ZONE">
	<path id="XMLID_43_" fill="none" d="M-95.76-95.76v308.759H441.5V-95.76H-95.76z M345.74,117.24H0V0h345.74V117.24z"/>
</g>
<g id="LOGO">
	<g id="XMLID_2_">
		<path id="XMLID_3_" fill="#FBF9DF" d="M34.598,72.312L14.594,117.24H0l21.972-48.044C11.642,63.949,4.755,54.438,4.755,36.894
			C4.755,12.298,20.332,0,38.861,0h18.856v117.24H45.092V72.312H34.598z M45.092,10.658h-6.723
			c-10.166,0-20.004,6.723-20.004,26.235c0,18.856,9.019,24.923,20.004,24.923h6.723V10.658z"/>
		<path id="XMLID_6_" fill="#FBF9DF" d="M118.551,34.598v82.642h-12.626V80.182H86.905v37.058H74.115V34.598h12.789v35.09h19.021
			v-35.09H118.551z M184.304,133.473h-11.478V117.24h-35.418v16.233H125.93v-26.728h5.083c7.543-17.545,8.362-43.125,8.362-65.097
			v-7.051h38.37v72.148h6.559V133.473z M165.119,44.928h-14.266v1.476c0,17.381-0.82,42.797-7.707,60.342h21.972V44.928z
			 M219.558,118.387c-17.053,0-27.547-13.609-27.547-39.024c0-26.564,7.379-45.913,24.924-45.913
			c13.773,0,22.792,10.33,22.792,38.37v7.051h-34.435c0,18.692,5.247,28.531,15.413,28.531c7.215,0,12.954-3.279,16.233-5.575
			l2.952,9.838C234.643,115.764,227.756,118.387,219.558,118.387z M205.456,68.376h21.152c0-14.102-2.296-24.432-9.674-24.432
			C209.063,43.944,206.276,53.619,205.456,68.376z M265.634,76.084v41.156h-12.79V34.598h12.79v38.206l19.84-38.206h12.954
			L277.932,73.46l23.447,43.78h-13.938L265.634,76.084z M303.018,75.92c0-25.908,10.003-42.469,29.352-42.469
			c7.378,0,11.642,1.968,15.249,4.263l-1.804,12.134c-3.443-2.952-8.362-5.739-13.609-5.739c-9.183,0-15.741,10.33-15.741,31.155
			c0,20.66,4.919,32.466,15.249,32.466c6.23,0,10.986-2.459,13.938-5.083l2.951,9.511c-4.427,3.771-9.674,6.23-17.217,6.23
			C313.677,118.387,303.018,104.123,303.018,75.92z"/>
	</g>
</g>
</svg>
