<?xml version="1.0" encoding="utf-8"?>
<!-- Generator: Adobe Illustrator 17.0.0, SVG Export Plug-In . SVG Version: 6.00 Build 0)  -->
<!DOCTYPE svg PUBLIC "-//W3C//DTD SVG 1.1//EN" "http://www.w3.org/Graphics/SVG/1.1/DTD/svg11.dtd">
<svg version="1.1" id="Layer_1" xmlns="http://www.w3.org/2000/svg" xmlns:xlink="http://www.w3.org/1999/xlink" x="0px" y="0px"
	 width="90px" height="35.995px" viewBox="-287.576 424.544 90 35.995" enable-background="new -287.576 424.544 90 35.995"
	 xml:space="preserve">
<g display="none">
	<g display="inline">
		
			<image overflow="visible" enable-background="new    " width="74" height="74"  transform="matrix(0.9868 0 0 0.9868 12.7839 -42.5122)">
		</image>
	</g>
</g>
<path display="none" fill="none" stroke="#811910" stroke-miterlimit="10" d="M84.641-42.549c0,39.64-32.035,71.716-71.625,71.716"
	/>
<text transform="matrix(1 0 0 1 88.7677 8.174)" display="none" fill="#811910" enable-background="new    " font-family="'OpenSans-SemiBold'" font-size="46.2918">e</text>
<text transform="matrix(1 0 0 1 8.5177 8.1741)" display="none" fill="#811910" enable-background="new    " font-family="'OpenSans-SemiBold'" font-size="46.2918">Ed</text>
<rect x="-113.635" y="-106.042" display="none" fill="#31313B" width="302.667" height="211.667"/>
<polygon fill="#FBF9E0" points="-197.576,459.356 -200.028,459.382 -200.028,435.71 -197.576,433.198 "/>
<g>
	<path fill="#FBF9E0" d="M-227.616,459.55c-0.387,0.37-0.813,0.693-1.26,0.989l31.301,0v-2.455l-28.766-0.05
		C-226.705,458.579-227.13,459.084-227.616,459.55z"/>
	<path fill="#FBF9E0" d="M-236.482,458.494c1.258,0,2.334-0.157,3.23-0.47l-6.047-0.011
		C-238.523,458.331-237.588,458.494-236.482,458.494z"/>
	<path fill="#FBF9E0" d="M-243.448,460.319c-0.848-0.66-1.52-1.433-2.022-2.316l-32.178-0.055l-2.899,2.592h37.417
		C-243.236,460.466-243.347,460.397-243.448,460.319z"/>
</g>
<g enable-background="new    ">
	<path fill="#FBF9DE" d="M-283.262,451.316c-1.388-0.819-2.453-1.968-3.197-3.443c-0.744-1.476-1.116-3.198-1.116-5.166
		c0-1.917,0.416-3.619,1.249-5.108c0.833-1.488,1.955-2.649,3.368-3.481c1.412-0.833,2.951-1.248,4.616-1.248
		c1.69,0,3.21,0.385,4.56,1.154c1.349,0.77,2.409,1.874,3.179,3.311c0.769,1.438,1.154,3.154,1.154,5.146v1.287h-14.758
		c0.05,1.791,0.611,3.197,1.684,4.219c1.072,1.022,2.479,1.533,4.219,1.533c1.438,0,2.635-0.346,3.595-1.041
		c0.958-0.694,1.614-1.62,1.968-2.781h3.103c-0.53,2.145-1.539,3.822-3.027,5.033c-1.489,1.211-3.381,1.816-5.676,1.816
		C-280.234,452.546-281.875,452.136-283.262,451.316z M-272.591,440.891c-0.127-1.589-0.725-2.819-1.797-3.69
		c-1.072-0.87-2.39-1.305-3.954-1.305c-1.514,0-2.8,0.441-3.86,1.324c-1.06,0.883-1.716,2.107-1.968,3.67H-272.591z"/>
</g>
<g enable-background="new    ">
	<path fill="#FBF9DE" d="M-262.317,451.335c-1.324-0.807-2.378-1.955-3.16-3.444c-0.782-1.488-1.173-3.216-1.173-5.184
		c0-1.968,0.366-3.695,1.098-5.184c0.731-1.488,1.753-2.636,3.065-3.444c1.311-0.807,2.787-1.21,4.427-1.21
		c1.211,0,2.352,0.208,3.425,0.624c1.072,0.416,1.961,1.003,2.668,1.759v-10.709h3.33v27.624h-3.33v-2.081
		c-0.656,0.681-1.489,1.261-2.497,1.74c-1.009,0.479-2.182,0.719-3.519,0.719C-259.549,452.546-260.993,452.143-262.317,451.335z
		 M-254.712,448.838c0.845-0.454,1.514-1.06,2.006-1.817c0.492-0.757,0.738-1.576,0.738-2.459v-3.633
		c0-0.882-0.253-1.708-0.757-2.479c-0.505-0.769-1.173-1.387-2.006-1.854s-1.741-0.7-2.724-0.7c-1.716,0-3.122,0.568-4.219,1.703
		c-1.097,1.135-1.646,2.838-1.646,5.108c0,2.271,0.549,3.974,1.646,5.109c1.098,1.135,2.503,1.703,4.219,1.703
		C-256.471,449.519-255.557,449.291-254.712,448.838z"/>
	<path fill="#FBF9DE" d="M-241.714,458.525c-1.362-1.06-2.157-2.485-2.384-4.276h3.633c0.429,1.892,1.842,2.838,4.238,2.838
		c1.968,0,3.373-0.485,4.22-1.457c0.845-0.971,1.268-2.226,1.268-3.765v-2.195c-0.858,0.858-1.76,1.489-2.706,1.893
		c-0.946,0.403-2.075,0.605-3.386,0.605c-1.665,0-3.148-0.384-4.446-1.154c-1.3-0.769-2.315-1.885-3.046-3.349
		c-0.732-1.462-1.098-3.179-1.098-5.147c0-1.942,0.391-3.645,1.173-5.108c0.782-1.463,1.835-2.586,3.16-3.368
		c1.324-0.781,2.768-1.173,4.333-1.173c1.336,0,2.51,0.239,3.519,0.718c1.009,0.48,1.842,1.06,2.498,1.741v-2.081h3.33v18.807
		c0,2.447-0.763,4.402-2.289,5.865c-1.526,1.463-3.664,2.195-6.414,2.195C-238.485,460.114-240.352,459.584-241.714,458.525z
		 M-232.253,447.608c1.008-1.022,1.514-2.301,1.514-3.84v-2.422c0-1.035-0.246-1.968-0.738-2.8
		c-0.492-0.833-1.161-1.482-2.005-1.949c-0.845-0.467-1.759-0.7-2.744-0.7c-1.715,0-3.121,0.543-4.219,1.627
		c-1.098,1.085-1.646,2.75-1.646,4.995c0,2.246,0.548,3.911,1.646,4.995c1.098,1.086,2.503,1.628,4.219,1.628
		C-234.588,449.14-233.263,448.63-232.253,447.608z"/>
	<path fill="#FBF9DE" d="M-219.881,451.316c-1.387-0.819-2.453-1.968-3.197-3.443c-0.745-1.476-1.117-3.198-1.117-5.166
		c0-1.917,0.417-3.619,1.249-5.108c0.833-1.488,1.954-2.649,3.368-3.481c1.412-0.833,2.951-1.248,4.616-1.248
		c1.689,0,3.21,0.385,4.56,1.154c1.349,0.77,2.408,1.874,3.179,3.311c0.769,1.438,1.154,3.154,1.154,5.146v1.287h-14.758
		c0.05,1.791,0.611,3.197,1.684,4.219c1.071,1.022,2.479,1.533,4.219,1.533c1.438,0,2.636-0.346,3.595-1.041
		c0.959-0.694,1.614-1.62,1.968-2.781h3.103c-0.529,2.145-1.539,3.822-3.027,5.033c-1.489,1.211-3.381,1.816-5.676,1.816
		C-216.853,452.546-218.494,452.136-219.881,451.316z M-209.21,440.891c-0.127-1.589-0.726-2.819-1.798-3.69
		s-2.39-1.305-3.954-1.305c-1.514,0-2.8,0.441-3.86,1.324c-1.06,0.883-1.716,2.107-1.968,3.67H-209.21z"/>
</g>
</svg>
